<svg width="136" height="40" viewBox="0 0 136 40" fill="none" xmlns="http://www.w3.org/2000/svg">
<rect opacity="0.38" width="136" height="40" rx="4" fill="#7A7A7A"/>
<path opacity="0.6" d="M31.488 13.8V25H32.864V16.456L39.744 25H40.704V13.8H39.328V22.376L32.464 13.8H31.488ZM42.688 21.064C42.688 23.464 44.416 25.144 46.784 25.144C49.168 25.144 50.896 23.464 50.896 21.064C50.896 18.616 49.2 16.92 46.784 16.92C44.432 16.92 42.688 18.616 42.688 21.064ZM49.6 21.064C49.584 22.728 48.416 23.912 46.784 23.912C45.168 23.912 44 22.728 44 21.064C44 19.304 45.184 18.12 46.8 18.12C48.384 18.12 49.6 19.304 49.6 21.064ZM57.1599 25H58.5519V13.8H57.1599V25ZM61.1688 17.096V25H62.4808V20.52C62.4808 19.224 63.3288 18.2 64.6248 18.2C65.9368 18.2 66.7528 19.224 66.7528 20.52V25H68.0648V20.52C68.0648 19.224 68.9288 18.2 70.2248 18.2C71.5208 18.2 72.2728 19.192 72.2728 20.488V25H73.5848V20.488C73.5848 18.328 72.3368 16.968 70.2568 16.968C69.1368 16.968 68.0487 17.48 67.4728 18.696C67.0248 17.432 65.9048 16.968 64.8168 16.968C63.9208 16.968 62.9608 17.336 62.4808 18.264L62.4008 17.112H61.1848L61.1688 17.096ZM82.4155 25H83.6795V17.096H82.3995L82.3835 18.536C81.8075 17.512 80.6395 16.968 79.4555 16.968C77.1995 16.952 75.3915 18.488 75.3915 21.048C75.3915 23.624 77.1675 25.192 79.4395 25.192C80.5275 25.192 81.7275 24.68 82.3515 23.592L82.3835 25.032L82.4155 25ZM79.5195 18.2C83.3115 18.2 83.3115 23.992 79.5035 23.992C77.9355 23.992 76.6715 22.856 76.6715 21.096C76.6715 19.336 77.9355 18.216 79.5035 18.216L79.5195 18.2ZM86.955 26.328H85.691C85.643 28.456 87.355 29.704 89.739 29.704C91.835 29.704 93.867 28.664 93.867 26.616C93.867 25.48 93.227 24.488 91.691 24.04C93.227 23.544 93.915 22.168 93.915 20.824C93.915 19.672 93.515 18.968 92.891 18.264L93.787 17.208L92.859 16.472L92.011 17.496C91.435 17.096 90.491 16.904 89.771 16.904C87.739 16.904 85.595 18.216 85.595 20.824C85.595 23.288 87.291 24.728 89.771 24.728C91.243 24.728 92.539 25.352 92.539 26.632C92.539 28.008 91.115 28.504 89.755 28.504C88.315 28.488 86.955 27.864 86.955 26.328ZM86.891 20.824C86.891 18.984 88.363 18.104 89.771 18.104C91.259 18.104 92.635 19.032 92.635 20.84C92.635 22.36 91.467 23.576 89.787 23.576C88.203 23.576 86.923 22.632 86.891 20.824ZM102.944 23.736L102.064 22.936C101.536 23.576 100.448 23.928 99.5523 23.928C98.0323 23.928 96.8323 23.016 96.6883 21.56H103.408C103.712 18.408 101.872 16.92 99.4563 16.92C97.0723 16.92 95.3603 18.632 95.3603 21.016C95.3603 23.528 97.0723 25.144 99.5203 25.144C100.752 25.144 102.128 24.68 102.928 23.736H102.944ZM102.16 20.456H96.6883C96.9123 18.936 98.1123 18.104 99.4883 18.104C101.04 18.104 102.096 18.936 102.16 20.472V20.456Z" fill="black"/>
</svg>
