<svg width="404" height="100" viewBox="0 0 404 100" fill="none" xmlns="http://www.w3.org/2000/svg">
<g clip-path="url(#clip0)">
<path d="M27.026 56.9244V81.6919H17.4139V56.9244L0 31.3369H10.8824L22.1449 47.9153L33.4775 31.3369H44.4399L27.026 56.9244Z" fill="#F5DA14"/>
<path d="M34.5977 62.924C34.5977 52.265 43.3096 43.5659 53.962 43.5659C64.6944 43.5659 73.3263 52.265 73.3263 62.924C73.3263 73.5829 64.7044 82.292 53.972 82.292C43.3096 82.292 34.5977 73.5829 34.5977 62.924ZM64.1042 62.924C64.1042 56.9246 59.9733 52.565 54.3421 52.565C48.6408 52.565 44.5799 56.9146 44.5799 62.924C44.5799 68.9234 48.6308 73.2829 54.3421 73.2829C59.9733 73.2829 64.1042 68.9334 64.1042 62.924Z" fill="#F5DA14"/>
<path d="M112.965 44.1655V81.6918H103.353V77.9422C100.652 80.6419 97.0517 82.2917 93.2908 82.2917C84.0588 82.2917 77.8274 74.8625 77.8274 65.1134V44.1655H87.6596V64.8735C87.6596 69.903 90.8903 73.4226 95.4613 73.4226C100.042 73.4226 103.343 69.823 103.343 64.7935V44.1655H112.965Z" fill="#F5DA14"/>
<path d="M144.492 44.6158L141.862 54.6748C140.141 53.3249 138.331 52.425 137.061 52.425C132.48 52.425 129.179 56.0247 129.179 61.0542V81.6921H119.567V44.1659H129.179V47.9155C131.879 45.2158 135.56 43.5659 139.311 43.5659C141.181 43.5659 142.912 43.9459 144.492 44.6158Z" fill="#F5DA14"/>
<path d="M187.422 62.924C187.422 73.5829 178.79 82.282 168.057 82.282C164.157 82.282 160.556 81.1522 157.545 79.1324V99.9903H147.933V44.1659H157.545V46.6456C160.546 44.6958 164.147 43.5659 168.057 43.5659C178.79 43.5659 187.422 52.1951 187.422 62.924ZM177.51 62.924C177.51 56.8446 173.379 52.565 167.747 52.565C162.046 52.565 157.995 56.8446 157.995 62.924C157.995 68.9234 162.046 73.203 167.747 73.203C173.389 73.2129 177.51 68.9334 177.51 62.924Z" fill="#F5DA14"/>
<path d="M229.901 44.1656V81.6919H220.289V79.2121C217.288 81.1619 213.688 82.2918 209.857 82.2918C199.124 82.2918 190.492 73.5827 190.492 62.9337C190.492 52.2848 199.124 43.5757 209.857 43.5757C213.688 43.5757 217.288 44.7056 220.289 46.6554V44.1756H229.901V44.1656ZM219.919 62.9237C219.919 56.9243 215.788 52.5648 210.157 52.5648C204.526 52.5648 200.395 56.9143 200.395 62.9237C200.395 68.9231 204.526 73.2827 210.157 73.2827C215.788 73.2827 219.919 68.9331 219.919 62.9237Z" fill="#F5DA14"/>
<path d="M234.632 74.8628L240.714 69.3833C240.714 69.3833 245.295 73.9629 251.596 73.9629C255.277 73.9629 257.597 72.763 257.597 70.8832C257.597 66.9036 235.152 67.4335 235.152 54.9748C235.152 48.2954 240.484 43.5659 250.316 43.5659C260.978 43.5659 267.13 50.9952 267.13 50.9952L261.048 56.4746C261.048 56.4746 256.397 51.8951 250.086 51.8951C246.485 51.8951 244.084 53.095 244.084 54.9748C244.084 58.9544 266.599 58.4244 266.599 70.8832C266.599 77.5625 261.198 82.292 251.366 82.292C240.784 82.292 234.632 74.8628 234.632 74.8628Z" fill="#F5DA14"/>
<path d="M270.21 74.8628L276.292 69.3833C276.292 69.3833 280.873 73.9629 287.174 73.9629C290.855 73.9629 293.175 72.763 293.175 70.8832C293.175 66.9036 270.73 67.4335 270.73 54.9748C270.73 48.2954 276.061 43.5659 285.894 43.5659C296.556 43.5659 302.707 50.9952 302.707 50.9952L296.626 56.4746C296.626 56.4746 291.975 51.8951 285.664 51.8951C282.063 51.8951 279.662 53.095 279.662 54.9748C279.662 58.9544 302.177 58.4244 302.177 70.8832C302.177 77.5625 296.776 82.292 286.944 82.292C276.362 82.292 270.21 74.8628 270.21 74.8628Z" fill="#F5DA14"/>
<path d="M404 48.0452V36.9763C404 33.6766 401.319 30.9969 398.019 30.9969H393.998C393.998 13.8786 380.115 0 362.991 0C345.867 0 331.984 13.8786 331.984 30.9969H328.963C325.663 30.9969 322.982 33.6766 322.982 36.9763V47.9952C329.063 47.9952 333.984 52.9147 333.984 58.9941C333.984 65.0735 329.063 69.993 322.982 69.993V80.012C322.982 83.3117 325.663 85.9914 328.963 85.9914H352.038C352.008 85.6614 351.988 85.3315 351.988 84.9915C351.988 78.9121 356.909 73.9926 362.991 73.9926C369.072 73.9926 373.993 78.9121 373.993 84.9915C373.993 85.3315 373.973 85.6614 373.943 85.9914H398.019C401.319 85.9914 404 83.3117 404 80.012V69.943C398.389 69.4431 393.998 64.7335 393.998 58.9941C393.998 53.2547 398.389 48.5451 404 48.0452ZM362.991 7.9992C375.674 7.9992 385.996 18.3182 385.996 30.9969H373.943C373.443 36.6063 368.732 40.9959 362.991 40.9959C357.25 40.9959 352.539 36.6063 352.038 30.9969H339.986C339.986 18.3182 350.308 7.9992 362.991 7.9992ZM362.991 69.993C357.25 69.993 352.539 65.6034 352.038 60.004C352.008 59.664 351.988 59.3341 351.988 58.9941C351.988 56.4644 352.839 54.1246 354.279 52.2748C356.289 49.665 359.44 47.9952 362.991 47.9952C366.542 47.9952 369.692 49.665 371.703 52.2748C373.143 54.1246 373.993 56.4644 373.993 58.9941C373.993 59.3341 373.973 59.664 373.943 60.004C373.443 65.6034 368.732 69.993 362.991 69.993Z" fill="#F5DA14"/>
</g>
<defs>
<clipPath id="clip0">
<rect width="404" height="100" fill="white"/>
</clipPath>
</defs>
</svg>
