<svg width="82" height="86" viewBox="0 0 82 86" fill="none" xmlns="http://www.w3.org/2000/svg">
<path d="M82 48.0452V36.9763C82 33.6766 79.3194 30.9969 76.0186 30.9969H71.9977C71.9977 13.8786 58.1147 0 40.9908 0C23.867 0 9.98394 13.8786 9.98394 30.9969H6.96328C3.66254 30.9969 0.981934 33.6766 0.981934 36.9763V47.9952C7.06329 47.9952 11.9844 52.9147 11.9844 58.9941C11.9844 65.0735 7.06329 69.993 0.981934 69.993V80.012C0.981934 83.3117 3.66254 85.9914 6.96328 85.9914H30.0384C30.0084 85.6614 29.9884 85.3315 29.9884 84.9915C29.9884 78.9121 34.9095 73.9926 40.9908 73.9926C47.0722 73.9926 51.9933 78.9121 51.9933 84.9915C51.9933 85.3315 51.9733 85.6614 51.9433 85.9914H76.0186C79.3194 85.9914 82 83.3117 82 80.012V69.943C76.3887 69.4431 71.9977 64.7335 71.9977 58.9941C71.9977 53.2547 76.3887 48.5451 82 48.0452ZM40.9908 7.9992C53.6737 7.9992 63.996 18.3182 63.996 30.9969H51.9433C51.4431 36.6063 46.7321 40.9959 40.9908 40.9959C35.2496 40.9959 30.5385 36.6063 30.0384 30.9969H17.9857C17.9857 18.3182 28.308 7.9992 40.9908 7.9992ZM40.9908 69.993C35.2496 69.993 30.5385 65.6034 30.0384 60.004C30.0084 59.664 29.9884 59.3341 29.9884 58.9941C29.9884 56.4644 30.8386 54.1246 32.2789 52.2748C34.2894 49.665 37.4401 47.9952 40.9908 47.9952C44.5416 47.9952 47.6923 49.665 49.7028 52.2748C51.1431 54.1246 51.9933 56.4644 51.9933 58.9941C51.9933 59.3341 51.9733 59.664 51.9433 60.004C51.4431 65.6034 46.7321 69.993 40.9908 69.993Z" fill="#F5DA14"/>
</svg>
